<svg version="1.1" id="Layer_1" xmlns="http://www.w3.org/2000/svg" xmlns:xlink="http://www.w3.org/1999/xlink" x="0px" y="0px"
	 width="100%" viewBox="0 0 808 611" enable-background="new 0 0 808 611" xml:space="preserve">
<path fill="#000000" opacity="1.000000" stroke="none" 
	d="
M447.000000,612.000000 
	C298.000000,612.000000 149.500000,612.000000 1.000000,612.000000 
	C1.000000,408.333344 1.000000,204.666672 1.000000,1.000000 
	C270.333344,1.000000 539.666687,1.000000 809.000000,1.000000 
	C809.000000,204.666672 809.000000,408.333344 809.000000,612.000000 
	C688.500000,612.000000 568.000000,612.000000 447.000000,612.000000 
M36.245472,510.079285 
	C33.458096,514.372070 30.670721,518.664795 27.143072,523.015869 
	C23.453869,527.880981 19.448959,532.550903 16.252354,537.720581 
	C15.181109,539.453003 16.171032,542.460022 17.108744,544.983887 
	C222.034271,544.989258 426.959778,544.995056 631.885315,544.991638 
	C633.212402,544.991577 634.539429,544.863586 636.610229,544.694214 
	C639.135376,542.059326 637.426331,540.899170 635.545715,538.462524 
	C628.424988,529.236511 622.033875,519.445679 615.411316,509.837494 
	C606.933960,497.538330 598.496643,485.211517 589.764771,472.256714 
	C586.064697,466.879456 582.388184,461.485779 578.658691,456.129028 
	C573.746399,449.073364 568.792480,442.046722 563.815979,434.325958 
	C562.873047,433.205750 561.858582,432.137634 560.998901,430.956757 
	C555.924072,423.985901 550.885254,416.988831 545.752197,409.291870 
	C542.291321,404.454376 538.800110,399.638275 535.378113,394.773438 
	C531.922485,389.860687 528.535522,384.899597 525.022705,379.245361 
	C512.391541,361.142151 499.760406,343.038910 487.012878,324.178436 
	C482.666473,317.623016 478.390717,311.019379 473.955444,304.524658 
	C468.639404,296.740265 463.272858,288.987335 457.774902,281.330841 
	C448.317017,268.159760 438.740509,255.073822 429.008606,241.377487 
	C428.628510,240.917252 428.248444,240.457016 427.933563,239.447800 
	C427.637146,239.248352 427.340698,239.048920 426.986603,238.277283 
	C426.691315,237.842026 426.395996,237.406784 425.948364,236.468460 
	C425.674652,236.260849 425.400970,236.053238 424.851074,235.184113 
	C421.220856,229.684204 417.681976,224.121216 413.938416,218.699600 
	C408.690552,211.099472 403.322021,203.581894 397.947052,196.070557 
	C391.700836,187.341644 385.391876,178.657654 378.816132,169.310379 
	C373.232178,161.198257 367.678864,153.064835 362.055817,144.979904 
	C356.148376,136.486008 350.186859,128.029602 344.225311,119.573509 
	C339.190247,112.431572 334.013062,105.386421 329.131409,98.141693 
	C327.611420,95.885887 325.974945,94.981461 324.136932,96.914101 
	C321.180695,100.022461 318.411652,103.380127 316.018280,106.938354 
	C310.178253,115.620567 304.726929,124.564644 298.868652,133.234055 
	C295.099304,138.812180 290.703735,143.966370 286.917175,149.533875 
	C281.990936,156.777100 277.570007,164.365448 272.604126,171.579880 
	C266.424896,180.557007 259.909821,189.302887 253.542877,198.150864 
	C246.989182,207.258392 240.422516,216.356644 233.892502,225.481110 
	C227.895599,233.860611 221.859436,242.213837 215.990982,250.682861 
	C211.053833,257.807861 206.465027,265.175476 201.485107,272.269348 
	C194.132538,282.743134 186.428818,292.971588 179.135513,303.485443 
	C171.546219,314.425995 164.288010,325.595795 156.844162,336.637787 
	C152.245438,343.459442 147.559082,350.221954 142.933289,357.025452 
	C139.335358,362.317169 135.930313,367.748291 132.155151,372.909424 
	C125.540634,381.952271 118.460510,390.662384 112.038368,399.835968 
	C105.977005,408.494171 100.684814,417.687531 94.735909,426.428802 
	C88.679489,435.328033 82.167587,443.915863 75.981873,452.729004 
	C71.305817,459.391205 66.896904,466.240479 62.248341,472.922455 
	C54.798996,483.630341 47.249649,494.268677 39.143963,505.239990 
	C38.432720,506.824493 37.721474,508.409027 36.245472,510.079285 
M566.934265,259.456940 
	C566.625488,259.348145 566.316650,259.239349 565.473145,258.938721 
	C565.021729,258.612549 564.570251,258.286377 564.003662,257.225525 
	C562.698792,254.673660 561.636719,251.956390 560.035706,249.606323 
	C557.196411,245.438873 553.955566,241.547592 551.016907,237.444687 
	C545.979004,230.410751 541.012756,223.324829 536.074890,216.220108 
	C530.612427,208.360565 525.173523,200.483841 519.805054,192.559982 
	C516.305603,187.394836 513.127563,182.002197 509.445892,176.974869 
	C507.885223,174.843796 505.401825,174.172195 503.441589,177.027390 
	C502.057709,179.043045 500.770569,181.126297 499.354645,183.118530 
	C494.514923,189.928223 489.610504,196.691971 484.782471,203.509857 
	C480.561127,209.471008 476.219666,215.361557 472.321167,221.529724 
	C470.784515,223.960938 468.646210,228.051575 469.624176,229.687500 
	C474.462677,237.781555 480.219879,245.330185 485.714539,253.027283 
	C492.069855,261.930084 498.489166,270.787231 504.880768,279.664154 
	C508.578979,284.800323 512.277344,289.936340 516.009460,295.784088 
	C529.324890,314.906921 542.640320,334.029724 556.275635,353.783569 
	C558.347900,356.606598 560.497620,359.376495 562.477966,362.262604 
	C568.353882,370.826080 574.067383,379.502655 580.041565,387.996307 
	C582.750000,391.847046 585.923950,395.370361 588.986206,399.810791 
	C590.493591,402.479004 591.771240,405.312561 593.550354,407.785309 
	C599.557800,416.135223 605.872925,424.265167 611.824158,432.653931 
	C617.707397,440.946869 623.291809,449.451752 629.634827,458.201416 
	C630.645447,459.862213 631.579529,461.575714 632.680054,463.174652 
	C637.171204,469.699371 641.723572,476.181946 646.234375,482.693207 
	C653.456543,493.118378 660.698425,503.530182 667.864868,513.993652 
	C672.647339,520.976440 677.186768,528.129028 682.087158,535.026367 
	C684.382141,538.256653 687.273315,541.063171 690.384155,544.786743 
	C713.261047,544.854980 736.137878,544.931396 759.014832,544.952148 
	C759.707581,544.952820 760.400879,544.372620 761.747192,543.694214 
	C761.242798,541.712708 761.212830,539.418274 760.149292,537.805542 
	C756.206055,531.826111 751.937134,526.060608 747.763062,520.234497 
	C739.925903,509.295441 731.946472,498.455627 724.272339,487.403656 
	C720.324585,481.718262 717.135925,475.506226 713.196289,469.814636 
	C707.208435,461.163971 700.779175,452.820251 694.697510,444.232788 
	C688.315918,435.221985 682.123047,426.077545 675.903320,416.456787 
	C675.615845,416.260315 675.328430,416.063812 674.881958,415.394196 
	C674.673950,415.111389 674.397339,414.938049 673.775208,414.247467 
	C668.258179,406.650513 662.586365,399.160034 657.265686,391.427948 
	C651.446106,382.970825 646.030334,374.236755 640.278137,365.731873 
	C637.735413,361.972321 634.797729,358.479828 631.735474,354.222168 
	C627.604187,348.079285 623.537720,341.891510 619.326538,335.803894 
	C612.890564,326.500244 606.354675,317.265747 599.785522,307.284912 
	C598.898132,306.614899 597.750549,306.120117 597.163269,305.247986 
	C590.695251,295.642609 584.330139,285.968018 577.903809,276.334442 
	C574.257080,270.867828 570.548767,265.442352 566.934265,259.456940 
z"/>
<path fill="#00A1E1" opacity="1.000000" stroke="none" 
	d="
M427.868347,239.996780 
	C428.248444,240.457016 428.628510,240.917252 428.787659,241.808533 
	C422.865753,248.838455 417.548737,255.820358 411.405487,261.977936 
	C335.087677,338.473999 258.649750,414.850159 182.242752,491.257233 
	C167.173264,506.326691 152.094406,521.386841 137.043472,536.474854 
	C134.625229,538.898987 132.331329,541.447266 129.513519,543.951782 
	C93.702927,543.979370 58.358715,543.977234 23.014641,544.044739 
	C20.748840,544.049072 18.484068,544.592041 16.218819,544.884399 
	C16.171032,542.460022 15.181109,539.453003 16.252354,537.720581 
	C19.448959,532.550903 23.453869,527.880981 27.883015,522.963867 
	C33.852448,520.313538 37.326229,516.038696 40.342823,510.922913 
	C43.196095,508.993073 45.991024,507.424988 48.173756,505.244171 
	C155.560043,397.951508 262.891754,290.604218 370.241058,183.274521 
	C374.099884,179.416428 378.386108,175.881958 379.110107,169.954178 
	C385.391876,178.657654 391.700836,187.341644 397.947052,196.070557 
	C403.322021,203.581894 408.690552,211.099472 413.938416,218.699600 
	C417.681976,224.121216 421.220856,229.684204 425.123474,235.723999 
	C425.630798,236.499771 425.865753,236.735641 426.100708,236.971527 
	C426.395996,237.406784 426.691315,237.842026 427.134674,238.767212 
	C427.455841,239.521210 427.651031,239.767761 427.868347,239.996780 
z"/>
<path fill="#0097E6" opacity="1.000000" stroke="none" 
	d="
M129.979919,543.938110 
	C132.331329,541.447266 134.625229,538.898987 137.043472,536.474854 
	C152.094406,521.386841 167.173264,506.326691 182.242752,491.257233 
	C258.649750,414.850159 335.087677,338.473999 411.405487,261.977936 
	C417.548737,255.820358 422.865753,248.838455 428.890259,242.095886 
	C438.740509,255.073822 448.317017,268.159760 457.774902,281.330841 
	C463.272858,288.987335 468.639404,296.740265 473.955444,304.524658 
	C478.390717,311.019379 482.666473,317.623016 486.782166,324.738464 
	C479.811523,331.921600 473.037262,338.510254 466.339294,345.175537 
	C454.940338,356.518799 443.589355,367.910400 432.218140,379.281586 
	C420.494659,391.005157 408.771118,402.728699 397.047577,414.452209 
	C386.735504,424.764313 376.423340,435.076324 366.111267,445.388397 
	C353.799316,457.700317 341.547638,470.073303 329.154480,482.302979 
	C320.776398,490.570587 312.115417,498.551422 303.731781,506.813538 
	C292.634491,517.750000 281.663788,528.815430 270.702209,539.888306 
	C269.575348,541.026611 268.880676,542.592773 267.518433,543.968750 
	C221.360916,543.964172 175.670425,543.951111 129.979919,543.938110 
z"/>
<path fill="#00A8DD" opacity="1.000000" stroke="none" 
	d="
M378.963135,169.632278 
	C378.386108,175.881958 374.099884,179.416428 370.241058,183.274521 
	C262.891754,290.604218 155.560043,397.951508 48.173756,505.244171 
	C45.991024,507.424988 43.196095,508.993073 40.343395,510.923523 
	C40.000000,511.000000 40.001034,511.001221 40.076332,510.643921 
	C40.015266,508.503174 39.878910,506.719788 39.742558,504.936371 
	C47.249649,494.268677 54.798996,483.630341 62.248341,472.922455 
	C66.896904,466.240479 71.305817,459.391205 75.981873,452.729004 
	C82.167587,443.915863 88.679489,435.328033 94.735909,426.428802 
	C100.684814,417.687531 105.977005,408.494171 112.038368,399.835968 
	C118.460510,390.662384 125.540634,381.952271 132.155151,372.909424 
	C135.930313,367.748291 139.335358,362.317169 142.933289,357.025452 
	C147.559082,350.221954 152.245438,343.459442 156.844162,336.637787 
	C164.288010,325.595795 171.546219,314.425995 179.135513,303.485443 
	C186.428818,292.971588 194.132538,282.743134 201.485107,272.269348 
	C206.465027,265.175476 211.053833,257.807861 215.990982,250.682861 
	C221.859436,242.213837 227.895599,233.860611 233.892502,225.481110 
	C240.422516,216.356644 246.989182,207.258392 253.542877,198.150864 
	C259.909821,189.302887 266.424896,180.557007 272.604126,171.579880 
	C277.570007,164.365448 281.990936,156.777100 286.917175,149.533875 
	C290.703735,143.966370 295.099304,138.812180 298.868652,133.234055 
	C304.726929,124.564644 310.178253,115.620567 316.018280,106.938354 
	C318.411652,103.380127 321.180695,100.022461 324.136932,96.914101 
	C325.974945,94.981461 327.611420,95.885887 329.131409,98.141693 
	C334.013062,105.386421 339.190247,112.431572 344.225311,119.573509 
	C350.186859,128.029602 356.148376,136.486008 362.055817,144.979904 
	C367.678864,153.064835 373.232178,161.198257 378.963135,169.632278 
z"/>
<path fill="#048EEA" opacity="1.000000" stroke="none" 
	d="
M267.985474,543.960388 
	C268.880676,542.592773 269.575348,541.026611 270.702209,539.888306 
	C281.663788,528.815430 292.634491,517.750000 303.731781,506.813538 
	C312.115417,498.551422 320.776398,490.570587 329.154480,482.302979 
	C341.547638,470.073303 353.799316,457.700317 366.111267,445.388397 
	C376.423340,435.076324 386.735504,424.764313 397.047577,414.452209 
	C408.771118,402.728699 420.494659,391.005157 432.218140,379.281586 
	C443.589355,367.910400 454.940338,356.518799 466.339294,345.175537 
	C473.037262,338.510254 479.811523,331.921600 486.840332,325.117065 
	C499.760406,343.038910 512.391541,361.142151 524.709473,379.681458 
	C522.117432,381.392578 519.403503,382.231140 517.623108,384.006134 
	C466.033142,435.438965 414.526550,486.955536 363.076508,538.528442 
	C361.656830,539.951538 361.004913,542.140503 359.526855,543.979126 
	C328.701019,543.977417 298.343262,543.968872 267.985474,543.960388 
z"/>
<path fill="#137BF3" opacity="1.000000" stroke="none" 
	d="
M674.052063,414.874237 
	C674.397339,414.938049 674.673950,415.111389 675.078491,415.830200 
	C675.443115,416.525940 675.634033,416.767700 675.847656,416.991516 
	C682.123047,426.077545 688.315918,435.221985 694.697510,444.232788 
	C700.779175,452.820251 707.208435,461.163971 713.196289,469.814636 
	C717.135925,475.506226 720.324585,481.718262 724.272339,487.403656 
	C731.946472,498.455627 739.925903,509.295441 747.763062,520.234497 
	C751.937134,526.060608 756.206055,531.826111 760.149292,537.805542 
	C761.212830,539.418274 761.242798,541.712708 760.947266,543.864136 
	C736.729675,544.043335 713.312012,544.052551 689.894348,544.061768 
	C687.273315,541.063171 684.382141,538.256653 682.087158,535.026367 
	C677.186768,528.129028 672.647339,520.976440 667.864868,513.993652 
	C660.698425,503.530182 653.456543,493.118378 646.234375,482.693207 
	C641.723572,476.181946 637.171204,469.699371 632.680054,463.174652 
	C631.579529,461.575714 630.645447,459.862213 629.516663,457.763550 
	C633.981079,453.335022 638.742737,449.529724 643.107483,445.313538 
	C651.202576,437.494110 659.050415,429.419189 667.035217,421.484894 
	C669.313904,419.220673 671.709839,417.074524 674.052063,414.874237 
z"/>
<path fill="#0889ED" opacity="1.000000" stroke="none" 
	d="
M359.994934,543.972351 
	C361.004913,542.140503 361.656830,539.951538 363.076508,538.528442 
	C414.526550,486.955536 466.033142,435.438965 517.623108,384.006134 
	C519.403503,382.231140 522.117432,381.392578 524.757385,380.038605 
	C528.535522,384.899597 531.922485,389.860687 535.378113,394.773438 
	C538.800110,399.638275 542.291321,404.454376 545.474487,409.739380 
	C544.012146,411.077515 542.699707,411.840179 541.661499,412.877319 
	C500.102661,454.392944 458.549316,495.914246 417.104919,537.543945 
	C415.516968,539.138977 415.009644,541.809937 413.530273,543.985229 
	C395.372833,543.984741 377.683899,543.978516 359.994934,543.972351 
z"/>
<path fill="#0E82F0" opacity="1.000000" stroke="none" 
	d="
M563.856445,435.007599 
	C568.792480,442.046722 573.746399,449.073364 578.658691,456.129028 
	C582.388184,461.485779 586.064697,466.879456 589.633545,472.794495 
	C587.057678,474.998932 584.286560,476.335968 582.219543,478.383728 
	C563.464600,496.964050 544.736694,515.574768 526.287109,534.456238 
	C524.002747,536.794006 523.389832,540.765015 521.533508,543.985046 
	C498.375977,543.987427 475.687378,543.984009 453.031281,543.622070 
	C455.670013,540.381348 458.158661,537.381775 460.900513,534.634888 
	C491.817963,503.660522 522.775269,472.726013 553.715027,441.773956 
	C554.654419,440.834167 555.729736,439.940826 556.377075,438.815979 
	C558.077698,435.861023 560.535095,434.650757 563.856445,435.007599 
z"/>
<path fill="#0097E6" opacity="1.000000" stroke="none" 
	d="
M515.975647,295.072449 
	C512.277344,289.936340 508.578979,284.800323 504.880768,279.664154 
	C498.489166,270.787231 492.069855,261.930084 485.714539,253.027283 
	C480.219879,245.330185 474.462677,237.781555 469.624176,229.687500 
	C468.646210,228.051575 470.784515,223.960938 472.321167,221.529724 
	C476.219666,215.361557 480.561127,209.471008 484.782471,203.509857 
	C489.610504,196.691971 494.514923,189.928223 499.354645,183.118530 
	C500.770569,181.126297 502.057709,179.043045 503.441589,177.027390 
	C505.401825,174.172195 507.885223,174.843796 509.445892,176.974869 
	C513.127563,182.002197 516.305603,187.394836 519.805054,192.559982 
	C525.173523,200.483841 530.612427,208.360565 536.074890,216.220108 
	C541.012756,223.324829 545.979004,230.410751 551.016907,237.444687 
	C553.955566,241.547592 557.196411,245.438873 560.035706,249.606323 
	C561.636719,251.956390 562.698792,254.673660 563.727295,257.514099 
	C559.987061,254.462372 557.477539,255.779755 554.455811,258.904144 
	C543.853271,269.866943 533.006836,280.596497 522.115479,291.274445 
	C520.439026,292.917969 518.040344,293.824860 515.975647,295.072449 
z"/>
<path fill="#0A86EE" opacity="1.000000" stroke="none" 
	d="
M563.836182,434.666779 
	C560.535095,434.650757 558.077698,435.861023 556.377075,438.815979 
	C555.729736,439.940826 554.654419,440.834167 553.715027,441.773956 
	C522.775269,472.726013 491.817963,503.660522 460.900513,534.634888 
	C458.158661,537.381775 455.670013,540.381348 452.562805,543.627502 
	C439.374115,543.987427 426.686462,543.983521 413.998779,543.979553 
	C415.009644,541.809937 415.516968,539.138977 417.104919,537.543945 
	C458.549316,495.914246 500.102661,454.392944 541.661499,412.877319 
	C542.699707,411.840179 544.012146,411.077515 545.515503,410.093750 
	C550.885254,416.988831 555.924072,423.985901 560.998901,430.956757 
	C561.858582,432.137634 562.873047,433.205750 563.836182,434.666779 
z"/>
<path fill="#127DF2" opacity="1.000000" stroke="none" 
	d="
M522.002441,543.979248 
	C523.389832,540.765015 524.002747,536.794006 526.287109,534.456238 
	C544.736694,515.574768 563.464600,496.964050 582.219543,478.383728 
	C584.286560,476.335968 587.057678,474.998932 589.772217,473.114441 
	C598.496643,485.211517 606.933960,497.538330 615.411316,509.837494 
	C622.033875,519.445679 628.424988,529.236511 635.545715,538.462524 
	C637.426331,540.899170 639.135376,542.059326 635.881836,544.568787 
	C633.008850,544.296387 630.864258,544.023254 628.719482,544.021240 
	C593.147156,543.987061 557.574768,543.986938 522.002441,543.979248 
z"/>
<path fill="#0E81F0" opacity="1.000000" stroke="none" 
	d="
M673.913635,414.560852 
	C671.709839,417.074524 669.313904,419.220673 667.035217,421.484894 
	C659.050415,429.419189 651.202576,437.494110 643.107483,445.313538 
	C638.742737,449.529724 633.981079,453.335022 629.202881,457.594666 
	C623.291809,449.451752 617.707397,440.946869 611.824158,432.653931 
	C605.872925,424.265167 599.557800,416.135223 593.550354,407.785309 
	C591.771240,405.312561 590.493591,402.479004 589.337830,399.416382 
	C591.768066,398.202545 594.366699,397.916962 595.842896,396.479095 
	C607.363953,385.257172 618.781067,373.921021 629.914856,362.317352 
	C631.495117,360.670410 631.373413,357.390320 632.039429,354.866089 
	C634.797729,358.479828 637.735413,361.972321 640.278137,365.731873 
	C646.030334,374.236755 651.446106,382.970825 657.265686,391.427948 
	C662.586365,399.160034 668.258179,406.650513 673.913635,414.560852 
z"/>
<path fill="#048EEA" opacity="1.000000" stroke="none" 
	d="
M515.992554,295.428284 
	C518.040344,293.824860 520.439026,292.917969 522.115479,291.274445 
	C533.006836,280.596497 543.853271,269.866943 554.455811,258.904144 
	C557.477539,255.779755 559.987061,254.462372 563.784912,257.881439 
	C564.570251,258.286377 565.021729,258.612549 565.871033,259.191742 
	C566.452393,259.646912 566.652161,259.831451 566.868164,259.998352 
	C570.548767,265.442352 574.257080,270.867828 577.903809,276.334442 
	C584.330139,285.968018 590.695251,295.642609 597.163269,305.247986 
	C597.750549,306.120117 598.898132,306.614899 599.522827,307.773224 
	C597.454895,310.392548 595.782593,312.655426 593.822266,314.632629 
	C583.082581,325.464569 572.257324,336.211487 561.500000,347.025940 
	C559.559692,348.976471 557.799194,351.105774 555.955750,353.152527 
	C542.640320,334.029724 529.324890,314.906921 515.992554,295.428284 
z"/>
<path fill="#0988ED" opacity="1.000000" stroke="none" 
	d="
M556.115723,353.468048 
	C557.799194,351.105774 559.559692,348.976471 561.500000,347.025940 
	C572.257324,336.211487 583.082581,325.464569 593.822266,314.632629 
	C595.782593,312.655426 597.454895,310.392548 599.560669,308.131714 
	C606.354675,317.265747 612.890564,326.500244 619.326538,335.803894 
	C623.537720,341.891510 627.604187,348.079285 631.887451,354.544128 
	C631.373413,357.390320 631.495117,360.670410 629.914856,362.317352 
	C618.781067,373.921021 607.363953,385.257172 595.842896,396.479095 
	C594.366699,397.916962 591.768066,398.202545 589.288086,399.032074 
	C585.923950,395.370361 582.750000,391.847046 580.041565,387.996307 
	C574.067383,379.502655 568.353882,370.826080 562.477966,362.262604 
	C560.497620,359.376495 558.347900,356.606598 556.115723,353.468048 
z"/>
<path fill="#0080FF" opacity="1.000000" stroke="none" 
	d="
M521.533508,543.985046 
	C557.574768,543.986938 593.147156,543.987061 628.719482,544.021240 
	C630.864258,544.023254 633.008850,544.296387 635.510010,544.619385 
	C634.539429,544.863586 633.212402,544.991577 631.885315,544.991638 
	C426.959778,544.995056 222.034271,544.989258 16.663780,544.934143 
	C18.484068,544.592041 20.748840,544.049072 23.014641,544.044739 
	C58.358715,543.977234 93.702927,543.979370 129.513519,543.951782 
	C175.670425,543.951111 221.360916,543.964172 267.518433,543.968750 
	C298.343262,543.968872 328.701019,543.977417 359.526855,543.979126 
	C377.683899,543.978516 395.372833,543.984741 413.530273,543.985229 
	C426.686462,543.983521 439.374115,543.987427 452.530273,543.985962 
	C475.687378,543.984009 498.375977,543.987427 521.533508,543.985046 
z"/>
<path fill="#0080FF" opacity="1.000000" stroke="none" 
	d="
M690.139282,544.424255 
	C713.312012,544.052551 736.729675,544.043335 760.620667,544.048706 
	C760.400879,544.372620 759.707581,544.952820 759.014832,544.952148 
	C736.137878,544.931396 713.261047,544.854980 690.139282,544.424255 
z"/>
<path fill="#00A8DD" opacity="1.000000" stroke="none" 
	d="
M39.999428,510.999390 
	C37.326229,516.038696 33.852448,520.313538 28.253151,522.934692 
	C30.670721,518.664795 33.458096,514.372070 36.889053,510.224030 
	C38.355434,510.579590 39.178234,510.790405 40.001030,511.001221 
	C40.001034,511.001221 40.000000,511.000000 39.999428,510.999390 
z"/>
<path fill="#00A1E1" opacity="1.000000" stroke="none" 
	d="
M40.076328,510.643921 
	C39.178234,510.790405 38.355434,510.579590 37.271431,510.181152 
	C37.721474,508.409027 38.432720,506.824493 39.443260,505.088196 
	C39.878910,506.719788 40.015266,508.503174 40.076328,510.643921 
z"/>
<path fill="#0E81F0" opacity="1.000000" stroke="none" 
	d="
M675.875488,416.724152 
	C675.634033,416.767700 675.443115,416.525940 675.157959,416.066772 
	C675.328430,416.063812 675.615845,416.260315 675.875488,416.724152 
z"/>
<path fill="#0097E6" opacity="1.000000" stroke="none" 
	d="
M566.901245,259.727661 
	C566.652161,259.831451 566.452393,259.646912 566.138428,259.287659 
	C566.316650,259.239349 566.625488,259.348145 566.901245,259.727661 
z"/>
<path fill="#0097E6" opacity="1.000000" stroke="none" 
	d="
M426.024536,236.719986 
	C425.865753,236.735641 425.630798,236.499771 425.261536,236.054749 
	C425.400970,236.053238 425.674652,236.260849 426.024536,236.719986 
z"/>
<path fill="#0097E6" opacity="1.000000" stroke="none" 
	d="
M427.900940,239.722290 
	C427.651031,239.767761 427.455841,239.521210 427.163513,239.053314 
	C427.340698,239.048920 427.637146,239.248352 427.900940,239.722290 
z"/>
</svg>